<?xml version="1.0" encoding="UTF-8" standalone="no"?>
<!-- Created with Inkscape (http://www.inkscape.org/) -->

<svg
   width="256"
   height="256"
   viewBox="0 0 256 256"
   version="1.1"
   id="svg1"
   xml:space="preserve"
   inkscape:version="1.4.3 (0d15f75042, 2025-12-25)"
   sodipodi:docname="touch_icon.svg"
   xmlns:inkscape="http://www.inkscape.org/namespaces/inkscape"
   xmlns:sodipodi="http://sodipodi.sourceforge.net/DTD/sodipodi-0.dtd"
   xmlns="http://www.w3.org/2000/svg"
   xmlns:svg="http://www.w3.org/2000/svg"><sodipodi:namedview
     id="namedview1"
     pagecolor="#ffffff"
     bordercolor="#000000"
     borderopacity="0.25"
     inkscape:showpageshadow="2"
     inkscape:pageopacity="0.0"
     inkscape:pagecheckerboard="0"
     inkscape:deskcolor="#d1d1d1"
     inkscape:document-units="px"
     inkscape:zoom="1.4601735"
     inkscape:cx="-117.79422"
     inkscape:cy="80.469888"
     inkscape:window-width="2560"
     inkscape:window-height="1368"
     inkscape:window-x="0"
     inkscape:window-y="0"
     inkscape:window-maximized="1"
     inkscape:current-layer="layer1" /><defs
     id="defs1" /><g
     inkscape:label="Layer 1"
     inkscape:groupmode="layer"
     id="layer1"><path
       style="fill:none;stroke:#ffffff;stroke-width:16.2916;stroke-dasharray:none;stroke-opacity:1"
       d="M 95.226877,232.47675 C 74.872147,224.19164 58.383757,215.47731 49.481924,194.12351 44.10365,181.22206 37.564274,170.33782 44.461135,153.25986 50.318721,138.75537 65.816437,136.79568 75.143727,163.58037 68.096447,137.27952 43.90327,62.606735 35.535288,39.176395 27.167307,15.746048 57.849907,6.8202023 65.102157,28.019085 c 7.25225,21.19888 30.54312,90.932055 30.54312,90.932055 0,0 -6.41731,-18.89497 -8.78637,-26.917005 -4.10403,-11.83092 13.697253,-26.39384 28.590603,-15.06236 5.82802,11.33148 14.50451,35.982315 14.50451,35.982315 0,0 -5.16027,-14.841215 -8.92586,-23.848755 -3.90507,-7.33394 21.0655,-38.42971 38.63219,-5.57865 5.29364,14.72045 9.20477,27.056485 9.20477,27.056485 0,0 -0.79229,-6.93266 -3.76559,-14.504505 -1.57863,-22.35524 26.32821,-23.37185 29.98528,-12.83091 9.4837,27.335415 22.05797,62.622905 25.66179,80.890485 8.08906,41.00309 -28.73007,45.74496 -58.29692,59.41267 -29.89355,13.81872 -30.45025,23.89358 -67.222803,8.92584 z"
       id="path1"
       sodipodi:nodetypes="ssscssccccccccssss" /></g></svg>
