<?xml version="1.0" encoding="UTF-8" standalone="no"?>
<!-- Created with Inkscape (http://www.inkscape.org/) -->

<svg
   width="256"
   height="256"
   viewBox="0 0 256 256"
   version="1.1"
   id="svg1"
   xml:space="preserve"
   inkscape:version="1.4.3 (0d15f75042, 2025-12-25)"
   sodipodi:docname="bomb.svg"
   xmlns:inkscape="http://www.inkscape.org/namespaces/inkscape"
   xmlns:sodipodi="http://sodipodi.sourceforge.net/DTD/sodipodi-0.dtd"
   xmlns="http://www.w3.org/2000/svg"
   xmlns:svg="http://www.w3.org/2000/svg"><sodipodi:namedview
     id="namedview1"
     pagecolor="#ffffff"
     bordercolor="#000000"
     borderopacity="0.25"
     inkscape:showpageshadow="2"
     inkscape:pageopacity="0.0"
     inkscape:pagecheckerboard="0"
     inkscape:deskcolor="#d1d1d1"
     inkscape:document-units="px"
     inkscape:zoom="1.0324986"
     inkscape:cx="156.41668"
     inkscape:cy="12.106554"
     inkscape:window-width="2560"
     inkscape:window-height="1368"
     inkscape:window-x="0"
     inkscape:window-y="0"
     inkscape:window-maximized="1"
     inkscape:current-layer="layer1" /><defs
     id="defs1" /><g
     inkscape:label="Layer 1"
     inkscape:groupmode="layer"
     id="layer1"><circle
       style="fill:#1a1a1a;fill-opacity:1;stroke-width:1.27527"
       id="path1"
       cx="126.81605"
       cy="164.10425"
       r="75" /><path
       id="circle2"
       style="fill:#000000;fill-opacity:1;stroke-width:1.27527"
       d="M 158.56055 96.154297 A 75 75 0 0 1 178.57227 147.1543 A 75 75 0 0 1 103.57227 222.1543 A 75 75 0 0 1 71.826172 215.10547 A 75 75 0 0 0 126.81641 239.10352 A 75 75 0 0 0 201.81641 164.10352 A 75 75 0 0 0 158.56055 96.154297 z " /><path
       id="circle3"
       style="fill:#ffffff;fill-opacity:0.313892;stroke-width:0.782772"
       d="m 67.644633,180.92974 c -12.986606,-21.85789 -0.316221,-55.92616 21.541658,-68.91277 16.351229,-9.71498 23.106129,-1.26015 10.534543,6.20906 -21.857878,12.9866 -22.200967,39.86394 -16.062862,63.09153 2.899884,4.88018 -10.991151,8.0643 -16.013339,-0.38782 z"
       sodipodi:nodetypes="ccccc" /><path
       id="rect4"
       style="fill:#999999"
       d="m 101.68125,79.584451 50.01304,-0.529672 c 0,0 1.65841,12.998839 -0.68485,21.743991 -11.75995,8.40273 -38.44742,6.73578 -48.90016,0.70088 -2.18296,-7.961152 -0.42803,-21.915199 -0.42803,-21.915199 z"
       sodipodi:nodetypes="ccccc" /><ellipse
       style="fill:#666666;fill-opacity:1;stroke-width:0.712749"
       id="path4"
       cx="126.69728"
       cy="79.271408"
       rx="24.99703"
       ry="7.3621387" /><ellipse
       style="fill:#4d4d4d;fill-opacity:1;stroke-width:0.44754"
       id="ellipse4"
       cx="126.69728"
       cy="79.271408"
       rx="15.695809"
       ry="4.6227384" /><path
       id="path5"
       style="fill:#666666"
       d="m 133.86921,98.417829 c 7.85415,-3.908282 11.24453,-8.212858 14.22962,-11.829699 4.61588,-5.592779 5.25387,5.465488 2.91061,14.21064 -11.75995,8.40273 -38.44742,6.73578 -48.90016,0.70088 -2.18296,-7.961152 22.23737,1.65667 31.75993,-3.081821 z"
       sodipodi:nodetypes="ssccs" /><path
       style="fill:#ff940d;fill-opacity:1"
       d="m 121.90332,78.820078 c 1.76447,1.688057 3.63506,3.211639 8.56063,0 0,0 -8.3556,-17.070742 -4.65389,-24.521676 3.9462,-7.943079 18.00846,-10.12557 23.82969,-11.837695 5.82123,-1.712125 5.13638,-9.245476 -0.34243,-8.903051 -5.4788,0.342425 -26.27423,7.494535 -31.5031,18.490953 -3.87704,8.153483 4.1091,26.771469 4.1091,26.771469 z"
       id="path6"
       sodipodi:nodetypes="ccassac" /><path
       sodipodi:type="star"
       style="fill:#ff940d;fill-opacity:1"
       id="path7"
       inkscape:flatsided="false"
       sodipodi:sides="10"
       sodipodi:cx="150.60553"
       sodipodi:cy="21.791798"
       sodipodi:r1="197.73676"
       sodipodi:r2="59.32103"
       sodipodi:arg1="2.6878023"
       sodipodi:arg2="3.0019616"
       inkscape:rounded="-3.469447e-18"
       inkscape:randomized="0.1"
       d="M -26.988895,95.122261 96.918778,24.973971 -26.840875,-28.910744 112.39445,12.61172 26.412671,-138.00272 126.06157,-12.906304 120.98223,-189.51881 170.3651,-44.95673 229.14437,-153.08603 205.85303,-6.0124648 334.21873,-62.701574 215.0974,19.312033 349.05146,50.281925 196.10588,55.451598 290.16014,146.96503 186.74213,72.588147 174.01807,232.22241 138.17465,68.131376 39.807327,212.3916 103.33797,44.30258 Z"
       inkscape:transform-center-x="0.92034404"
       inkscape:transform-center-y="-4.4240936"
       transform="matrix(0.1270469,0,0,0.1270469,131.52492,33.227515)" /><path
       sodipodi:type="star"
       style="fill:#ff740d;fill-opacity:1"
       id="path8"
       inkscape:flatsided="false"
       sodipodi:sides="10"
       sodipodi:cx="150.60553"
       sodipodi:cy="21.791798"
       sodipodi:r1="197.73676"
       sodipodi:r2="59.32103"
       sodipodi:arg1="2.6878023"
       sodipodi:arg2="3.0019616"
       inkscape:rounded="-3.469447e-18"
       inkscape:randomized="0.1"
       d="M -26.988895,95.122261 96.918778,24.973971 -26.840875,-28.910744 112.39445,12.61172 26.412671,-138.00272 126.06157,-12.906304 120.98223,-189.51881 170.3651,-44.95673 229.14437,-153.08603 205.85303,-6.0124648 334.21873,-62.701574 215.0974,19.312033 349.05146,50.281925 196.10588,55.451598 290.16014,146.96503 186.74213,72.588147 174.01807,232.22241 138.17465,68.131376 39.807327,212.3916 103.33797,44.30258 Z"
       inkscape:transform-center-x="0.5031275"
       inkscape:transform-center-y="-2.4185216"
       transform="matrix(0.06945279,0,0,0.06945279,140.36913,34.888973)" /><path
       sodipodi:type="star"
       style="fill:#ff320d;fill-opacity:1"
       id="path9"
       inkscape:flatsided="false"
       sodipodi:sides="10"
       sodipodi:cx="150.60553"
       sodipodi:cy="21.791798"
       sodipodi:r1="197.73676"
       sodipodi:r2="59.32103"
       sodipodi:arg1="2.6878023"
       sodipodi:arg2="3.0019616"
       inkscape:rounded="-3.469447e-18"
       inkscape:randomized="0.1"
       d="M -26.988895,95.122261 96.918778,24.973971 -26.840875,-28.910744 112.39445,12.61172 26.412671,-138.00272 126.06157,-12.906304 120.98223,-189.51881 170.3651,-44.95673 229.14437,-153.08603 205.85303,-6.0124648 334.21873,-62.701574 215.0974,19.312033 349.05146,50.281925 196.10588,55.451598 290.16014,146.96503 186.74213,72.588147 174.01807,232.22241 138.17465,68.131376 39.807327,212.3916 103.33797,44.30258 Z"
       inkscape:transform-center-x="0.30421974"
       inkscape:transform-center-y="-1.4623761"
       transform="matrix(0.04199513,0,0,0.04199513,144.62638,35.58393)" /></g></svg>
